# WaveFront *.obj file (generated by Autodesk ATF)

mtllib RACE_sim_RightLeg.mtl

g Body29

v -1.011446 -0.178750 -0.179850
v -1.011446 -0.178750 -0.159850
v -1.011446 -0.158750 -0.159850
v -1.011446 -0.158750 -0.179850
v -0.943846 -0.178750 -0.159850
v -0.943846 -0.158750 -0.159850
v -0.943846 -0.178750 -0.089850
v -0.943846 -0.158750 -0.089850
v -0.923846 -0.178750 -0.089850
v -0.923846 -0.158750 -0.089850
v -0.923846 -0.178750 -0.159850
v -0.923846 -0.158750 -0.159850
v -0.511846 -0.178750 -0.159850
v -0.511846 -0.158750 -0.159850
v -0.511846 -0.178750 -0.089850
v -0.511846 -0.158750 -0.089850
v -0.491846 -0.178750 -0.089850
v -0.491846 -0.158750 -0.089850
v -0.491846 -0.178750 -0.159850
v -0.491846 -0.158750 -0.159850
v -0.401846 -0.178750 -0.159850
v -0.401846 -0.158750 -0.159850
v -0.401846 -0.178750 -0.179850
v -0.401846 -0.158750 -0.179850
vt -2.000000 -0.000000 0.000000
vt -0.000000 0.000000 0.000000
vt -2.000000 2.000000 0.000000
vt -0.000000 2.000000 0.000000
vt -6.760000 0.000000 0.000000
vt 0.000000 0.000000 0.000000
vt -6.760000 2.000000 0.000000
vt 0.000000 2.000000 0.000000
vt -7.000000 -0.000000 0.000000
vt -0.000000 0.000000 0.000000
vt -7.000000 2.000000 0.000000
vt -0.000000 2.000000 0.000000
vt -2.000000 0.000000 0.000000
vt 0.000000 0.000000 0.000000
vt -2.000000 2.000000 0.000000
vt 0.000000 2.000000 0.000000
vt -7.000000 0.000000 0.000000
vt 0.000000 -0.000000 0.000000
vt -7.000000 2.000000 0.000000
vt 0.000000 2.000000 0.000000
vt -41.200000 -0.000000 0.000000
vt 0.000000 0.000000 0.000000
vt -41.200000 2.000000 0.000000
vt -0.000000 2.000000 0.000000
vt -7.000000 -0.000000 0.000000
vt -0.000000 0.000000 0.000000
vt -7.000000 2.000000 0.000000
vt -0.000000 2.000000 0.000000
vt -2.000000 0.000000 0.000000
vt 0.000000 0.000000 0.000000
vt -2.000000 2.000000 0.000000
vt -0.000000 2.000000 0.000000
vt -7.000000 0.000000 0.000000
vt -0.000000 0.000000 0.000000
vt -7.000000 2.000000 0.000000
vt 0.000000 2.000000 0.000000
vt -9.000000 0.000000 0.000000
vt 0.000000 0.000000 0.000000
vt -9.000000 2.000000 0.000000
vt -0.000000 2.000000 0.000000
vt -2.000000 0.000000 0.000000
vt -0.000000 0.000000 0.000000
vt -2.000000 2.000000 0.000000
vt 0.000000 2.000000 0.000000
vt -60.960000 -0.000000 0.000000
vt -0.000000 0.000000 0.000000
vt -60.960000 2.000000 0.000000
vt -0.000000 2.000000 0.000000
vt 30.480000 -4.500000 0.000000
vt 19.480000 -2.500000 0.000000
vt -30.480000 -4.500000 0.000000
vt -21.720000 -2.500000 0.000000
vt -23.720000 -2.500000 0.000000
vt -23.720000 4.500000 0.000000
vt -21.720000 4.500000 0.000000
vt 30.480000 -2.500000 0.000000
vt 21.480000 -2.500000 0.000000
vt 21.480000 4.500000 0.000000
vt 19.480000 4.500000 0.000000
vt -30.480000 -2.500000 0.000000
vt 30.480000 -4.500000 0.000000
vt -19.480000 -2.500000 0.000000
vt -30.480000 -4.500000 0.000000
vt -21.480000 -2.500000 0.000000
vt -30.480000 -2.500000 0.000000
vt 30.480000 -2.500000 0.000000
vt 23.720000 -2.500000 0.000000
vt 21.720000 -2.500000 0.000000
vt 23.720000 4.500000 0.000000
vt 21.720000 4.500000 0.000000
vt -19.480000 4.500000 0.000000
vt -21.480000 4.500000 0.000000
vn -100.000000 -0.000000 -0.000000
vn -100.000000 -0.000000 -0.000000
vn -100.000000 -0.000000 -0.000000
vn -100.000000 -0.000000 -0.000000
vn -0.000000 -0.000000 100.000000
vn -0.000000 -0.000000 100.000000
vn -0.000000 -0.000000 100.000000
vn -0.000000 -0.000000 100.000000
vn -100.000000 -0.000000 -0.000000
vn -100.000000 -0.000000 -0.000000
vn -100.000000 -0.000000 -0.000000
vn -100.000000 -0.000000 -0.000000
vn 0.000000 -0.000000 100.000000
vn 0.000000 -0.000000 100.000000
vn 0.000000 -0.000000 100.000000
vn 0.000000 -0.000000 100.000000
vn 100.000000 0.000000 0.000000
vn 100.000000 0.000000 0.000000
vn 100.000000 0.000000 0.000000
vn 100.000000 0.000000 0.000000
vn -0.000000 -0.000000 100.000000
vn -0.000000 -0.000000 100.000000
vn -0.000000 -0.000000 100.000000
vn -0.000000 -0.000000 100.000000
vn -100.000000 -0.000000 -0.000000
vn -100.000000 -0.000000 -0.000000
vn -100.000000 -0.000000 -0.000000
vn -100.000000 -0.000000 -0.000000
vn 0.000000 -0.000000 100.000000
vn 0.000000 -0.000000 100.000000
vn 0.000000 -0.000000 100.000000
vn 0.000000 -0.000000 100.000000
vn 100.000000 0.000000 0.000000
vn 100.000000 0.000000 0.000000
vn 100.000000 0.000000 0.000000
vn 100.000000 0.000000 0.000000
vn -0.000000 -0.000000 100.000000
vn -0.000000 -0.000000 100.000000
vn -0.000000 -0.000000 100.000000
vn -0.000000 -0.000000 100.000000
vn 100.000000 0.000000 0.000000
vn 100.000000 0.000000 0.000000
vn 100.000000 0.000000 0.000000
vn 100.000000 0.000000 0.000000
vn 0.000000 0.000000 -100.000000
vn 0.000000 0.000000 -100.000000
vn 0.000000 0.000000 -100.000000
vn 0.000000 0.000000 -100.000000
vn 0.000000 -100.000000 -0.000000
vn 0.000000 -100.000000 -0.000000
vn 0.000000 -100.000000 -0.000000
vn 0.000000 -100.000000 -0.000000
vn 0.000000 -100.000000 -0.000000
vn 0.000000 -100.000000 -0.000000
vn 0.000000 -100.000000 -0.000000
vn 0.000000 -100.000000 -0.000000
vn 0.000000 -100.000000 -0.000000
vn 0.000000 -100.000000 -0.000000
vn 0.000000 -100.000000 -0.000000
vn 0.000000 -100.000000 -0.000000
vn -0.000000 100.000000 0.000000
vn -0.000000 100.000000 0.000000
vn -0.000000 100.000000 0.000000
vn -0.000000 100.000000 0.000000
vn -0.000000 100.000000 0.000000
vn -0.000000 100.000000 0.000000
vn -0.000000 100.000000 0.000000
vn -0.000000 100.000000 0.000000
vn -0.000000 100.000000 0.000000
vn -0.000000 100.000000 0.000000
vn -0.000000 100.000000 0.000000
vn -0.000000 100.000000 0.000000
usemtl ABS_(White)
f 1/1/1 2/2/2 4/3/3
f 4/3/3 2/2/2 3/4/4
f 2/5/5 5/6/6 3/7/7
f 3/7/7 5/6/6 6/8/8
f 5/9/9 7/10/10 6/11/11
f 6/11/11 7/10/10 8/12/12
f 7/13/13 9/14/14 8/15/15
f 8/15/15 9/14/14 10/16/16
f 9/17/17 11/18/18 10/19/19
f 10/19/19 11/18/18 12/20/20
f 11/21/21 13/22/22 12/23/23
f 12/23/23 13/22/22 14/24/24
f 13/25/25 15/26/26 14/27/27
f 14/27/27 15/26/26 16/28/28
f 15/29/29 17/30/30 16/31/31
f 16/31/31 17/30/30 18/32/32
f 17/33/33 19/34/34 18/35/35
f 18/35/35 19/34/34 20/36/36
f 19/37/37 21/38/38 20/39/39
f 20/39/39 21/38/38 22/40/40
f 21/41/41 23/42/42 22/43/43
f 22/43/43 23/42/42 24/44/44
f 23/45/45 1/46/46 24/47/47
f 24/47/47 1/46/46 4/48/48
f 23/49/49 13/50/50 1/51/51
f 1/51/51 13/50/50 11/52/52
f 1/51/51 11/52/52 5/53/53
f 5/53/53 11/52/52 7/54/54
f 7/54/54 11/52/52 9/55/55
f 21/56/56 19/57/57 23/49/49
f 23/49/49 19/57/57 13/50/50
f 17/58/58 15/59/59 19/57/57
f 19/57/57 15/59/59 13/50/50
f 5/53/53 2/60/60 1/51/51
f 4/61/61 14/62/62 24/63/63
f 24/63/63 14/62/62 20/64/64
f 24/63/63 20/64/64 22/65/65
f 3/66/66 6/67/67 4/61/61
f 4/61/61 6/67/67 12/68/68
f 4/61/61 12/68/68 14/62/62
f 8/69/69 10/70/70 6/67/67
f 6/67/67 10/70/70 12/68/68
f 16/71/71 18/72/72 14/62/62
f 14/62/62 18/72/72 20/64/64
# 24 vertices
# 72 texture params
# 72 normals
# 44 facets

# 1 groups
