# WaveFront *.obj file (generated by Autodesk ATF)

mtllib ORL_Tank.mtl

g Body1

v -3.048000 0.609600 -4.572000
v 3.048000 0.609600 -4.572000
v 3.048000 5.181600 -4.572000
v -3.048000 5.181600 -4.572000
v 3.048000 0.609600 4.572000
v 3.048000 5.181600 4.572000
v -3.048000 0.609600 4.572000
v -3.048000 5.181600 4.572000
v 3.657600 0.000000 5.181600
v 3.657600 5.181600 5.181600
v -3.657600 5.181600 5.181600
v -3.657600 0.000000 5.181600
v -3.657600 5.181600 -5.181600
v -3.657600 0.000000 -5.181600
v 3.657600 5.181600 -5.181600
v 3.657600 0.000000 -5.181600
vt 0.000000 0.000000 0.000000
vt 609.600000 0.000000 0.000000
vt 0.000000 457.200000 0.000000
vt 609.600000 457.200000 0.000000
vt 0.000000 0.000000 0.000000
vt 914.400000 0.000000 0.000000
vt 0.000000 457.200000 0.000000
vt 914.400000 457.200000 0.000000
vt 0.000000 0.000000 0.000000
vt 914.400000 0.000000 0.000000
vt 0.000000 457.200000 0.000000
vt 914.400000 457.200000 0.000000
vt 0.000000 0.000000 0.000000
vt 609.600000 0.000000 0.000000
vt 0.000000 457.200000 0.000000
vt 609.600000 457.200000 0.000000
vt 731.520000 457.200000 0.000000
vt 0.000000 457.200000 0.000000
vt 731.520000 -60.960000 0.000000
vt 0.000000 -60.960000 0.000000
vt 1036.320000 457.200000 0.000000
vt 0.000000 457.200000 0.000000
vt 1036.320000 -60.960000 0.000000
vt 0.000000 -60.960000 0.000000
vt 731.520000 457.200000 0.000000
vt 0.000000 457.200000 0.000000
vt 731.520000 -60.960000 0.000000
vt 0.000000 -60.960000 0.000000
vt 1036.320000 457.200000 0.000000
vt 0.000000 457.200000 0.000000
vt 1036.320000 -60.960000 0.000000
vt 0.000000 -60.960000 0.000000
vt 457.200000 -304.800000 0.000000
vt 518.160000 -365.760000 0.000000
vt 457.200000 304.800000 0.000000
vt 518.160000 365.760000 0.000000
vt -518.160000 365.760000 0.000000
vt -457.200000 -304.800000 0.000000
vt -518.160000 -365.760000 0.000000
vt -457.200000 304.800000 0.000000
vt -457.200000 -304.800000 0.000000
vt 457.200000 -304.800000 0.000000
vt -457.200000 304.800000 0.000000
vt 457.200000 304.800000 0.000000
vt 365.760000 518.160000 0.000000
vt -365.760000 518.160000 0.000000
vt 365.760000 -518.160000 0.000000
vt -365.760000 -518.160000 0.000000
vn 0.000000 0.000000 100.000000
vn 0.000000 0.000000 100.000000
vn 0.000000 0.000000 100.000000
vn 0.000000 0.000000 100.000000
vn -100.000000 0.000000 0.000000
vn -100.000000 0.000000 0.000000
vn -100.000000 0.000000 0.000000
vn -100.000000 0.000000 0.000000
vn 100.000000 0.000000 -0.000000
vn 100.000000 0.000000 -0.000000
vn 100.000000 0.000000 -0.000000
vn 100.000000 0.000000 -0.000000
vn -0.000000 0.000000 -100.000000
vn -0.000000 0.000000 -100.000000
vn -0.000000 0.000000 -100.000000
vn -0.000000 0.000000 -100.000000
vn 0.000000 0.000000 100.000000
vn 0.000000 0.000000 100.000000
vn 0.000000 0.000000 100.000000
vn 0.000000 0.000000 100.000000
vn -100.000000 0.000000 -0.000000
vn -100.000000 0.000000 -0.000000
vn -100.000000 0.000000 -0.000000
vn -100.000000 0.000000 -0.000000
vn 0.000000 0.000000 -100.000000
vn 0.000000 0.000000 -100.000000
vn 0.000000 0.000000 -100.000000
vn 0.000000 0.000000 -100.000000
vn 100.000000 -0.000000 0.000000
vn 100.000000 -0.000000 0.000000
vn 100.000000 -0.000000 0.000000
vn 100.000000 -0.000000 0.000000
vn 0.000000 100.000000 0.000000
vn 0.000000 100.000000 0.000000
vn 0.000000 100.000000 0.000000
vn 0.000000 100.000000 0.000000
vn 0.000000 100.000000 0.000000
vn 0.000000 100.000000 0.000000
vn 0.000000 100.000000 0.000000
vn 0.000000 100.000000 0.000000
vn 0.000000 100.000000 0.000000
vn 0.000000 100.000000 0.000000
vn 0.000000 100.000000 0.000000
vn 0.000000 100.000000 0.000000
vn 0.000000 -100.000000 0.000000
vn 0.000000 -100.000000 0.000000
vn 0.000000 -100.000000 0.000000
vn 0.000000 -100.000000 0.000000
usemtl Steel_-_Satin
f 1/1/1 2/2/2 4/3/3
f 4/3/3 2/2/2 3/4/4
f 2/5/5 5/6/6 3/7/7
f 3/7/7 5/6/6 6/8/8
f 7/9/9 1/10/10 8/11/11
f 8/11/11 1/10/10 4/12/12
f 5/13/13 7/14/14 6/15/15
f 6/15/15 7/14/14 8/16/16
f 10/17/17 11/18/18 9/19/19
f 9/19/19 11/18/18 12/20/20
f 11/21/21 13/22/22 12/23/23
f 12/23/23 13/22/22 14/24/24
f 13/25/25 15/26/26 14/27/27
f 14/27/27 15/26/26 16/28/28
f 15/29/29 10/30/30 16/31/31
f 16/31/31 10/30/30 9/32/32
f 8/33/33 11/34/34 6/35/35
f 6/35/35 11/34/34 10/36/36
f 6/35/35 10/36/36 15/37/37
f 8/33/33 4/38/38 11/34/34
f 11/34/34 4/38/38 13/39/39
f 13/39/39 4/38/38 3/40/40
f 13/39/39 3/40/40 15/37/37
f 15/37/37 3/40/40 6/35/35
f 1/41/41 7/42/42 2/43/43
f 2/43/43 7/42/42 5/44/44
f 14/45/45 16/46/46 12/47/47
f 12/47/47 16/46/46 9/48/48
# 16 vertices
# 48 texture params
# 48 normals
# 28 facets

# 1 groups
